<svg xmlns="http://www.w3.org/2000/svg" viewBox="0 0 512 512">
  <defs>
    <linearGradient id="bg" x1="0" y1="0" x2="0.9" y2="1">
      <stop offset="0" stop-color="#0d8a64"/><stop offset=".55" stop-color="#065f46"/><stop offset="1" stop-color="#03382b"/>
    </linearGradient>
    <linearGradient id="gold" x1="0" y1="0" x2="0" y2="1">
      <stop offset="0" stop-color="#f3d77a"/><stop offset="1" stop-color="#c99a2e"/>
    </linearGradient>
    <radialGradient id="glow" cx=".5" cy=".36" r=".55"><stop offset="0" stop-color="#ffffff" stop-opacity=".16"/><stop offset="1" stop-color="#ffffff" stop-opacity="0"/></radialGradient>
  </defs>
  <rect width="512" height="512" fill="url(#bg)"/>
  <rect width="512" height="512" fill="url(#glow)"/>
  <g transform="translate(256 256) scale(0.8) translate(-256 -256)">
  <path d="M146 410V236c0-62 46-104 110-136 64 32 110 74 110 136v174" fill="none" stroke="url(#gold)" stroke-width="30" stroke-linecap="round" stroke-linejoin="round"/>
  <path d="M200 410l24-88h64l24 88z" fill="#ffffff" fill-opacity=".14"/>
  <path d="M256 334v22M256 374v22" stroke="#ffffff" stroke-opacity=".6" stroke-width="8" stroke-linecap="round"/>
  <path d="M282 152a66 66 0 1 0 0 124 53 53 0 1 1 0-124z" fill="url(#gold)"/>
  <path d="M302 182l7.5 15.5 17 2.4-12.3 12 2.9 17-15.1-8-15.1 8 2.9-17-12.3-12 17-2.4z" fill="#fff4cf"/>
  </g>
</svg>
